<?xml version="1.0"?>
    
<!--********* Copyright (c) 2024 Pareto Softare, LLC DBA Simplemaps.com ***************************************
************* Free for Commercial Use, full terms at  https://simplemaps.com/resources/svg-license ************
************* Attribution is appreciated! https://simplemaps.com *******************************************-->

<svg baseprofile="tiny" fill="#6f9c76" height="1000" stroke="#ffffff" stroke-linecap="round" stroke-linejoin="round" stroke-width=".5" version="1.2" viewbox="0 0 1000 1000" width="1000" xmlns="http://www.w3.org/2000/svg">
 <g id="features">
  <path d="M152.7 541.1l-0.1-0.1 0-0.1-0.1 0-7.9-10.2-23.6-13-9.7-10.8 5.7-8.4 0.5-8.3-1.3-9 0.2-10.4 1.6-5.2 4.9-9.3 0.5-1 0-0.1 6.3-16.4 16.7 11.5 25.4 1.7-3.7 11.5 7.3 8.2 10.9 4.9 14.5 3.3 10.9 4.9 10.9-6.5 10.9 3.3 4.8 9.8 6.1 14.8 8.4 8.2 15.8-6.6 9.6-1.6 9.7 4.9-8.4 13.2-14.6 6.5-3.6 18.1-4.8 11.5-12.1 4.9-9.7-3.3-9.7 14.8-21.8-6.6-25.4-11.5-7.2-19.7-17.9 2.1z" id="XKX02" name="Dečani">
  </path>
  <path d="M318.2 521l-2.4-14.8-4.9-11.5-9.7-9.9-1.2-11.5 7.3-9.8 3.6-9.9-9.7-6.6-4.8-18.1 14.5-4.9 15.7 4.9 15.8-3.3 7.2-9.8 13.3-5 12-0.3 11.1 14.4 9.2 5.7 8.2 1.9 5.9 13 2.9 14.6 15.8 6.6 10.9 0.1-20.3 31.2-15.7 0-31.1 23.8-23.2 8.1-12.7 5.6-17.7-14.5z" id="XKX08" name="Klina">
  </path>
  <path d="M335.9 535.5l12.7-5.6 23.2-8.1 31.1-23.8 15.7 0 20.3-31.2 7.5 0 5 7.3 0.7 9 2.4 12.2-0.5 20.3-2.6 6.8 4.8 2.6 14.7 6.3 8.4-13.4 3.5 7.7 3.7 13.1-3.8 15.1 0 6.6 6.1 11.4 2.4 14.8-13.3-1.6-12.1 6.5-8.5-3.3-9.7 1.7-9.6 8.2 0 13.1-19.4 1.6-9.7-6.5-10.9-8.2-7.2-19.7 2.4-14.8-7.3-11.4-10.9 0-14.5 1.6-9.7-3.3-14.9-15z" id="XKX14" name="Mališevo">
  </path>
  <path d="M341.2 808.7l-0.1-20.3-1.2-11.3-5.1-16.9-17.8-38.9-9.1-12.4-3.8-4.1 19.3-20.3 10.1-7.8 21.2-10.1 10.7 5.1 8.4 1.7 7.3-13.1 7.3-11.5 6 4.9 4.8 6.6 8.5 1.6 6.1-14.7 10.9 1.6 6 13.1 6.1 8.2 2.4 9.8 14.5 9.8 16.9 0 12.1 1.7 1.9 16.3-3.1 7.9-1.2 10.5 4.8 9.7 14.2 5.2 13.1 1.4 8.3 2.3 9.4 5.6 8.7 10.6 1.9 8.9 0.1 0.2-20.8 7.1-0.1 0-12.6 4.4-44.2 15.1-12.1 6.9-2.1-17.4-6.1-11.4-9.7 1.6-13.3-1.6-14.5-4.9-18.2 1.6-16.9 4.9-14.5 14.7-14.5 17.7z" id="XKX21" name="Prizren">
  </path>
  <path d="M335.9 535.5l14.9 15 9.7 3.3 14.5-1.6 10.9 0 7.3 11.4-2.4 14.8 7.2 19.7 10.9 8.2 9.7 6.5-2.4 13.1-2.4 21.3-6.1 14.7-8.5-1.6-4.8-6.6-6-4.9-7.3 11.5-7.3 13.1-8.4-1.7-10.7-5.1 8.1-12.8-8.1-7.3-7.9-5.1-14.8-10.7-11-16 0.1-19.9 0.4-20.6-2-17.5 5-13.7 11.4-7.5z" id="XKX17" name="Orahovac">
  </path>
  <path d="M231.2 328.9l4.8-0.9 3.5-0.5 4.1-0.8 19.6-4.2 19.4-4.3 22.8-9.5 10.6-14.4-0.9-2.7-1.2-3.5 5.4 0.6 27.5 2.7 13.2 8.2 10.3 13.1 8 16.9 6.8 22.4-2.2 16.1-3.3 10.5-5.5 15.9 0.8 16-12 0.3-13.3 5-7.2 9.8-15.8 3.3-15.7-4.9-14.5 4.9-9.7-4.9-15.7 0-15.7-8.2-12.1-11.6-6.1-9.8 0-16.5 0-18.1 0-16.5-5.9-14.4z" id="XKX06" name="Istok">
  </path>
  <path d="M438.9 466.8l-10.9-0.1-15.8-6.6-2.9-14.6-5.9-13-8.2-1.9-9.2-5.7-11.1-14.4-0.8-16 5.5-15.9 3.3-10.5 2.2-16.1-6.8-22.4 8.8-12.7 7.3-1.7 10.9 1.7 9.7 16.5 8.4 13.2 7.3 1.6 1.2-23.1 17 13.2 9.6 0 15.8 1.7 8.4 14.8-1.2 13.2-1.2 14.8 6.1 1.7 10.9-1.7 8.4 3.3 11.8 15.6-7.3 5.1-9.7 2.1-6.2 3.7-6.8 8.9-18.9-11-5.8 7.7-0.5 6.1-3.5 7.4-8.2 7.4-9.7 19.4-2 8.3z" id="XKX22" name="Srbica">
  </path>
  <path d="M598.5 347.8l2.8 8.7 3.6 11.5-10.9 13.2-1.2 14.8 6.1 14.8 3.6 11.5-2.4 16.5-13.3 9.9-9.7 1.6-14.5 0-10.9-9.9-7.3 3.3 0 9.9-6 3.3-9.7-8.2-3.6-13.2 0-9.9 13.6-6.9 22-8.2 12.2-11.9 1-9.4 5.2-16.7 8.1-18.4 11.3-6.3z" id="XKX16" name="Obilić">
  </path>
  <path d="M517.5 401.7l-11.8-15.6-8.4-3.3-10.9 1.7-6.1-1.7 1.2-14.8 1.2-13.2-8.4-14.8 14.5-11.6 12.1-3.3 10.9 0 0-9.9 1.2-19.8 8.4-6.6 10.9 1.7 4.9-14.9-4.9-13.2 7.3-3.3 14.5 6.6 12.1-3.3 12.6 3-2.5 14.3 2.2 16.9 4 9.7 9.9 11.5 5.7 14 0.4 16-11.3 6.3-8.1 18.4-5.2 16.7-1 9.4-12.2 11.9-22 8.2-10.8-6.1-10.4-10.9z" id="XKX28" name="Vučitrn">
  </path>
  <path d="M597.7 568.6l-2.4 13.1-8.5 9.8-7.3 6.6-1.2 13.1-3.6 9.8-13.3 1.6-22.5 2.9-11.4 3.7-7.1-6.2 3.8-7-1.4-8.9 6.9-11.7-7.2-12.2-13.9-7.1-6.5-9.2 16.9-9.8 13.3 1.6 13.3 1.7 17 4.9 15.7 1.6 7.3-6.5 12.1 8.2z" id="XKX23" name="Štimlje">
  </path>
  <path d="M538.4 456.9l6-3.3 0-9.9 7.3-3.3 10.9 9.9 14.5 0 9.7-1.6 13.3-9.9 2.4 18.1 3.6 8.2-6 11.5-8.5 13.2-13.3 4.9-15.7-3.3-10.9 4.9-10.9-1.6-4.8-8.2-9.7-8.2 7.2-8.3 4.9-13.1z" id="XKX09" name="Kosovo Polje">
  </path>
  <path d="M486.5 538.7l-3.7-13.1-3.5-7.7-8.4 13.4-14.7-6.3-4.8-2.6 2.6-6.8 0.5-20.3-2.4-12.2-0.7-9-5-7.3-7.5 0 2-8.3 9.7-19.4 8.2-7.4 3.5-7.4 0.5-6.1 5.8-7.7 18.9 11 6.8-8.9 6.2-3.7 9.7-2.1 7.3-5.1 10.4 10.9 10.8 6.1-13.6 6.9 0 9.9 3.6 13.2 9.7 8.2-4.9 13.1-7.2 8.3 9.7 8.2 4.8 8.2-12.1 11.5-2.4 11.5-9.7 6.6-10.9 0-8.4 9.8-10.8 4.6z" id="XKX04" name="Glogovac">
  </path>
  <path d="M482.7 553.8l3.8-15.1 10.8-4.6 8.4-9.8 10.9 0 9.7-6.6 2.4-11.5 12.1-11.5 10.9 1.6 10.9-4.9 15.7 3.3 13.3-4.9 7.3 3.3 7.2 8.2 13.4-6.6 8.4 4.9 15.8 3.3 12.1-4.9 0-13.2 0-14.8 7.2-3.2 15.7 3.2 13.4 6.6 14.5 8.1-9.6 6.4-6 9.5-9.5 12-1.8 10 5.7 11.8 4.3 11.7-3 10.3-13.5 1.4-2.9 12.4-21.8 0-21.8 1.6-18.1-3.2-10.9 0-12.1-8.2-7.3 6.5-15.7-1.6-17-4.9-13.3-1.7-13.3-1.6-16.9 9.8-7.3-10.5-12.1-2.6z" id="XKX13" name="Lipljan">
  </path>
  <path d="M384.4 181.8l10-21.4 2-15.7-3.5-4-4.7-0.3-5.1 0.7-4.2-1.3-2.8-4.2-2.6-6.2-4-13.9-5.7-12.3-1.2-7.2 3.1-8.4 3.9-2.8 15.3-0.6 10.5-4.2 36.9-27.9 11.5-5.2 11.7-1.4 7.2 2.2 4.6 1.4 9 7.5 4.7 5 3.1 4.3 4.6 9.2-1.5-0.1-4.8-1.5-5.4 5 0.3 3.3-0.7 9.4-1.4 8.4-1.9 0.6 3 5.2 34.9 20.5 34.1 20 4.1 2.4-2.8 11.9-0.1 12.1 4 8.2-13.3 0.8-3.7 10-10.8 8.2-6.1 8.3-10.9 1.7-10.9-5-9.6 19.8-20.6 10-3.6-8.3-3.7-11.6-10.9-8.3-14.5-8.2-19.3 0-9.7-11.6-18.5-4.5z" id="XKX12" name="Leposavić">
  </path>
  <path d="M844.6 569.3l-10.6-0.1-14.2-4.9-20.1-5.6 3.7-14.7-10.9-14.8-10.9-11.5-9.7-18.1 7.3-11.5-6.1-13.1-7.2-5-13.3-8.2 6.7-6.5 5.1-9.2-5.7-10.6-14-10.3-3.8-11.8 16.4-0.8 10.1 0 11.4-24.7 29.7 4.2 10.7 3.6 4.1 3.6 3.2 2.8 15.1 19.1 7.9 5.3 7-0.1 20.4-9.3 10.1-0.2 14.1 3.2 2.6 1.8 9.5 6.3 4 14.1-2.7 5.7-5 3.2-5.6 2.6-4.7 3.5 0.4 1.9-2.6 13-0.6 1.7-0.8 1.2-3.3 1.6-0.8 1.9 0.7 2.8 3.3 5.5 0.4 2.5-4.7 14.7-23.5 39.1-18.9 19-4.2 7.1z" id="XKX10" name="Kosovska Kamenica">
  </path>
  <path d="M691 500.6l6-9.5 9.6-6.4 9.5-11.9 9.1-10.1 9.7 0 17.7-0.9 13.3 8.2 7.2 5 6.1 13.1-7.3 11.5-12.1 0-8.5-6.5-9.6 4.9 2.4 14.8-10.9 6.5-8.5-6.5-9.7-9.9-10.8 3.3-13.2-5.6z" id="XKX15" name="Novo Brdo">
  </path>
  <path d="M371.9 201.3l12.5-19.5 18.5 4.5 9.7 11.6 19.3 0 14.5 8.2 10.9 8.3 3.7 11.6 3.6 8.3 12.1 13.2 14.5 8.3-1.2 18.1-4.8 13.3-12.1-3.4-19.4-1.6-9.7-9.9-13.3-21.5-9.7-11.6 3.7-9.9-9.7-9.9-19.4-13.3-23.7-4.8z" id="XKX30" name="Zvečan">
  </path>
  <path d="M474.3 340l-15.8-1.7-9.6 0-17-13.2-9.7-14.8 9.7-6.6 9.7-1.7 12.1-19.8 19.4 1.6 12.1 3.4 4.8-13.3 1.2-18.1-14.5-8.3-12.1-13.2 20.6-10 9.6-19.8 10.9 5 10.9-1.7 6.1-8.3 10.8-8.2 3.7-10 13.3-0.8 6.3 6 8.5 13.2 14.8 30.9 4.7 24.5-6 10.3-12.6-3-12.1 3.3-14.5-6.6-7.3 3.3 4.9 13.2-4.9 14.9-10.9-1.7-8.4 6.6-1.2 19.8 0 9.9-10.9 0-12.1 3.3-14.5 11.6z" id="XKX11" name="Kosovska Mitrovica">
  </path>
  <path d="M735.2 373.3l-14.1-0.4-8.5-9.9-9.7-8.2-7.2-13.2-18.2 8.3-14.5 4.9-4.8 9.9-8.5 1.6-6 6.6-8.5-4.9-4.9-9.9-6-6.6-4.8 9.9-6.1 6.6-8.5 0-3.6-11.5-2.8-8.7-0.4-16-5.7-14-9.9-11.5-4-9.7-2.2-16.9 2.5-14.3 6-10.3-4.7-24.5-14.8-30.9-8.5-13.2-6.3-6-4-8.2 0.1-12.1 2.8-11.9 5.6 3.2 9.7 3.8 31.5 1.7 7.5 5.9 7.3 15 7.3 33.9 4 8.5 8.2 4.9 6.7-3.6 6.4-4.7 7.9 1.3 7.3 14.4 0.7 20 2.7 20.4 13.3 15.7 5.2 1.5 11-0.1 5.4 1.2 5 3.1 9.2 7.9 4.8 2.9 15.2 3.6 9.5 0.5 4.5 4.9-0.1 3.3 0 13.5-2 10.8-6.4 21.6-1.6 9.9z" id="XKX19" name="Podujevo">
  </path>
  <path d="M313.9 288.1l-2.6-7.6-10.4-6.6-7.5-8.1 4-18 8-10.5 8.1-2.5 8.3 0 9.1-3.2 3.8-3.6 2.6-4.2 4.5-9.9 4.2-4.5 4.9 0.1 5.5 1.6 5.7-0.1 9.8-9.7 23.7 4.8 19.4 13.3 9.7 9.9-3.7 9.9 9.7 11.6 13.3 21.5 9.7 9.9-12.1 19.8-9.7 1.7-9.7 6.6 9.7 14.8-1.2 23.1-7.3-1.6-8.4-13.2-9.7-16.5-10.9-1.7-7.3 1.7-8.8 12.7-8-16.9-10.3-13.1-13.2-8.2-27.5-2.7-5.4-0.6z" id="XKX29" name="Zubin Potok">
  </path>
  <path d="M418.6 612.8l19.4-1.6 0-13.1 9.6-8.2 9.7-1.7 8.5 3.3 12.1-6.5 13.3 1.6-2.4-14.8-6.1-11.4 0-6.6 12.1 2.6 7.3 10.5 6.5 9.2 13.9 7.1 7.2 12.2-6.9 11.7 1.4 8.9-3.8 7 7.1 6.2 6 11.7 1.4 10.3-0.7 9.8 2.1 8.9-0.7 7.9-0.7 8.8-16 4.8-6.2 6.8-5.1 5.3-9.4 3.7-8.2 1.6-5.4-1.1-1.9-16.3-12.1-1.7-16.9 0-14.5-9.8-2.4-9.8-6.1-8.2-6-13.1-10.9-1.6 2.4-21.3 2.4-13.1z" id="XKX25" name="Suva Reka">
  </path>
  <path d="M527.5 629.2l11.4-3.7 22.5-2.9 13.3-1.6 3.6-9.8 1.2-13.1 7.3-6.6 8.5-9.8 2.4-13.1 10.9 0 18.1 3.2 21.8-1.6 21.8 0 12.1 29.5 5.6 30.3-26.4 2.9 0 12.9 6.3 7.9-13.4 3.3-9.6 6.6-3.7 14.7-8.4 0-9.7 4.9-6.1-3.3-12.1 0-10.9-3.3-4.8-8.1-8.5-4.9-4.8-9.9-8.5 0 0 13.1 1.2 9.8-6 0-8.5-6.5-11.4-3.5-6.4 3.3-2.1-8.9 0.7-9.8-1.4-10.3-6-11.7z" id="XKX26" name="Uroševac">
  </path>
  <path d="M341.2 808.7l14.5-17.7 14.5-14.7 16.9-4.9 18.2-1.6 14.5 4.9 13.3 1.6 9.7-1.6 6.1 11.4 2.1 17.4-9.2 11.2-4.7 13.7-5.8 31.4-0.6 14.4 4.1 17.6 0.4 1.7 1.4 6-1.6 13.1-0.2 2.2-0.4 0.9-4.6 10.9-0.9 1.7-4.5 7.7-2.4 4.2-4.3 4.7 0 0.2-0.4 0.3-5 5.6-10.1 3.5-4.5-3.3-9-12.7-1.7-1-5 1.6-2.8 2.5-3.1 5.9-3.5 2.9-7.7 0.4-5.7-3-10.9-11.7 0.3-4.7-2.4-7.8-0.1-4.6 2.2-7.7 2.9-3.4 3.4-2.6 3.9-5 4.9-11.6 0-8.1-2.3-8.3-2.2-12.6-14.8-39.1-2.9-11.9z" id="XKX03" name="Dragaš">
  </path>
  <path d="M599 731l-10.2 6.6-1.2 0.7-15.8 15.6-5.5 5.5-6.7 3.3-5.2 2.7-13.6 4.6-0.1-0.2-1.9-8.9-8.7-10.6-9.4-5.6-8.3-2.3-13.1-1.4-14.2-5.2-4.8-9.7 1.2-10.5 3.1-7.9 5.4 1.1 8.2-1.6 9.4-3.7 5.1-5.3 6.2-6.8 16-4.8 0.7-8.8 0.7-7.9 6.4-3.3 11.4 3.5 8.5 6.5 6 0-1.2-9.8 0-13.1 8.5 0 4.8 9.9 8.5 4.9 4.8 8.1 10.9 3.3 6.1 13.1 0 4.9-7.3 6.5-7.2 3.3 0 9.8 2.5 13.5z" id="XKX24" name="Štrpce">
  </path>
  <path d="M599 731l-2.5-13.5 0-9.8 7.2-3.3 7.3-6.5 0-4.9-6.1-13.1 12.1 0 6.1 3.3 9.7-4.9 8.4 0 3.7-14.7 9.6-6.6 13.4-3.3 8.4-3.8 1.7 5.8-8.2 14.1-1.3 10.5 12.1 16.4 16.5 5.8 12.5 1.2 13 11.7 0.1 0.2-3.2 2.6-27.8 42.7-0.6 5.6 1 3.4 1.4 3.5 0.7 5.4 0.5 12.9 0 0.2-0.2 1.2-0.7 4.4-5 1.1-15.4-3.1-1.5 0.5-4.3 1.9-5 2.3-3-8.1-1.6-4.4-1-3.9-2.5-5.2-7.7-12.7-16.7-16.5-17.9-13.9-6.4-3.5-3.2-0.9-3.6-0.1z" id="XKX07" name="Kačanik">
  </path>
  <path d="M735.2 373.3l-1.5 3.3-2.2 1.9-0.3 1.8 4.7 3.3 8 2.4 5.8-0.2 11.3-0.3 17.8 2.4-11.4 24.7-10.1 0-16.4 0.8 3.8 11.8 14 10.3 5.7 10.6-5.1 9.2-6.7 6.5-17.7 0.9-9.7 0-9.1 10.1-9.5 11.9-14.5-8.1-13.4-6.6-15.7-3.2-7.2 3.2 0 14.8 0 13.2-12.1 4.9-15.8-3.3-8.4-4.9-13.4 6.6-7.2-8.2-7.3-3.3 8.5-13.2 6-11.5-3.6-8.2-2.4-18.1 2.4-16.5-3.6-11.5-6.1-14.8 1.2-14.8 10.9-13.2 8.5 0 6.1-6.6 4.8-9.9 6 6.6 4.9 9.9 8.5 4.9 6-6.6 8.5-1.6 4.8-9.9 14.5-4.9 18.2-8.3 7.2 13.2 9.7 8.2 8.5 9.9 14.1 0.4z" id="XKX20" name="Priština">
  </path>
  <path d="M779.7 698l3.1-19.7-6-16.4-6.1-9.8-4.8-11.5-4.9-13-15.7-3.3-9.8-15.5-8.4-9.1-8.4-4.9-4.9-11.5-17 7.6-14.4 8.8-12.1-29.5 2.9-12.4 13.5-1.4 3-10.3-4.3-11.7-5.7-11.8 1.8-10 9.5-12 13.2 5.6 10.8-3.3 9.7 9.9 8.5 6.5 10.9-6.5-2.4-14.8 9.6-4.9 8.5 6.5 12.1 0 9.7 18.1 10.9 11.5 10.9 14.8-3.7 14.7 20.1 5.6 14.2 4.9 10.6 0.1-1 9.8 2.4 20.3-2.1 10-9.8 9.2-28 8.6-10.1 10.7-0.5 15.4 18.4 28 0.4 1.4 2.7 15.8-5.6 1.5-13.6 3.6-9.7 0.2-8.4-5.8z" id="XKX05" name="Gnjilane">
  </path>
  <path d="M779.7 698l-4.5 5.5-2 2.5-4.9-1.2-2-2-2.4-2.5-5.5-1.8-7.7 4.4 0.1 0.8 0.6 4.7 3.4 5.6 0.6 4.3-5.1 0.5-16.5-6.3-6.6 0.6-1.6 0.1-2.9 2.4-0.1-0.2-13-11.7-12.5-1.2-16.5-5.8-12.1-16.4 1.3-10.5 8.2-14.1-1.7-5.8-8.4 3.8-6.3-7.9 0-12.9 26.4-2.9-5.6-30.3 14.4-8.8 17-7.6 4.9 11.5 8.4 4.9 8.4 9.1 9.8 15.5 15.7 3.3 4.9 13 4.8 11.5 6.1 9.8 6 16.4-3.1 19.7z" id="XKX27" name="Vitina">
  </path>
  <path d="M152.7 541.1l17.9-2.1 7.2 19.7 25.4 11.5 21.8 6.6 9.7-14.8 9.7 3.3 12.1-4.9 4.8-11.5 3.6-18.1 14.6-6.5 8.4-13.2 15.8 0 14.5 9.9 17.7 14.5-11.4 7.5-5 13.7 2 17.5-0.4 20.6-0.1 19.9 11 16 14.8 10.7 7.9 5.1 8.1 7.3-8.1 12.8-21.2 10.1-10.1 7.8-19.3 20.3-7.8-8.6-58.4-42.9-7.2-1.3-2.5 0.1-20.3 0.5-9.5 0.2-5.6-0.8-3.8-4.4-4.1-10.4-0.7-4.6 0.8-8.6-1.1-4.9-2.7-3.9-7.4-6.4-2.2-4 0.6-4 4.9-7.5 0.1-5.3-2.3-4.9-6.4-6.2-2.5-3.6-13.3-32.2z" id="XKX01" name="Đakovica">
  </path>
  <path d="M231.2 328.9l5.9 14.4 0 16.5 0 18.1 0 16.5 6.1 9.8 12.1 11.6 15.7 8.2 15.7 0 9.7 4.9 4.8 18.1 9.7 6.6-3.6 9.9-7.3 9.8 1.2 11.5 9.7 9.9 4.9 11.5 2.4 14.8-14.5-9.9-15.8 0-9.7-4.9-9.6 1.6-15.8 6.6-8.4-8.2-6.1-14.8-4.8-9.8-10.9-3.3-10.9 6.5-10.9-4.9-14.5-3.3-10.9-4.9-7.3-8.2 3.7-11.5-25.4-1.7-16.7-11.5-1-2.3-3.6-6.7-5-4.7-18.5-17.8-3.5-3.4-0.4-0.4-5.4-9.9 0-0.5-9.5-6.4 12.4-14.7 7.7-6.3 3.5 0 2.9 0 2-1.7 5.4-2.5 7.9 2.1 7.5 1.9 1.4 0.4 6.5 4 6 0 12.4 0 3.1 4.2 7.7 2.1 2.1 0.5 7.7-8.7 0.7-6.2-0.7-5.4 0-0.5 0.4-6.2 3.9-7.1 4-2.6 18.1-6.7 5.9-1 19.9-3.4z" id="XKX18" name="Peć">
  </path>
 </g>
 <g id="points">
  <circle class="41.91496333269872|20.093056530477718" cx="124.5" cy="909.6" id="0">
  </circle>
  <circle class="42.48258760365955|20.9771101523992" cx="541.7" cy="548" id="1">
  </circle>
  <circle class="43.192117942360596|21.684353049936384" cx="875.5" cy="91.4" id="2">
  </circle>
 </g>
 <g id="label_points">
  <circle class="Dečani" cx="203.6" cy="525.8" id="XKX02">
  </circle>
  <circle class="Klina" cx="360.5" cy="468.8" id="XKX08">
  </circle>
  <circle class="Mališevo" cx="425.4" cy="550" id="XKX14">
  </circle>
  <circle class="Prizren" cx="404.2" cy="715.6" id="XKX21">
  </circle>
  <circle class="Orahovac" cx="364.3" cy="604.7" id="XKX17">
  </circle>
  <circle class="Istok" cx="313" cy="367.6" id="XKX06">
  </circle>
  <circle class="Srbica" cx="432.2" cy="396.1" id="XKX22">
  </circle>
  <circle class="Obilić" cx="581.3" cy="423.4" id="XKX16">
  </circle>
  <circle class="Vučitrn" cx="547.5" cy="342.9" id="XKX28">
  </circle>
  <circle class="Štimlje" cx="552.1" cy="593" id="XKX23">
  </circle>
  <circle class="Kosovo Polje" cx="567.7" cy="471.4" id="XKX09">
  </circle>
  <circle class="Glogovac" cx="490.9" cy="469.1" id="XKX04">
  </circle>
  <circle class="Lipljan" cx="613.9" cy="533.5" id="XKX13">
  </circle>
  <circle class="Leposavić" cx="439.4" cy="137.3" id="XKX12">
  </circle>
  <circle class="Kosovska Kamenica" cx="830.5" cy="487.7" id="XKX10">
  </circle>
  <circle class="Novo Brdo" cx="730.2" cy="484.4" id="XKX15">
  </circle>
  <circle class="Zvečan" cx="445.6" cy="236.1" id="XKX30">
  </circle>
  <circle class="Kosovska Mitrovica" cx="515.6" cy="240.6" id="XKX11">
  </circle>
  <circle class="Podujevo" cx="621.2" cy="281.8" id="XKX19">
  </circle>
  <circle class="Zubin Potok" cx="383.5" cy="257.9" id="XKX29">
  </circle>
  <circle class="Suva Reka" cx="482.7" cy="638.5" id="XKX25">
  </circle>
  <circle class="Uroševac" cx="616.3" cy="625" id="XKX26">
  </circle>
  <circle class="Dragaš" cx="395" cy="850.7" id="XKX03">
  </circle>
  <circle class="Štrpce" cx="555.2" cy="718" id="XKX24">
  </circle>
  <circle class="Kačanik" cx="657.9" cy="725.7" id="XKX07">
  </circle>
  <circle class="Priština" cx="684" cy="409.8" id="XKX20">
  </circle>
  <circle class="Gnjilane" cx="759.8" cy="563.5" id="XKX05">
  </circle>
  <circle class="Vitina" cx="720.5" cy="659.4" id="XKX27">
  </circle>
  <circle class="Đakovica" cx="276.6" cy="610.2" id="XKX01">
  </circle>
  <circle class="Peć" cx="205.8" cy="422.3" id="XKX18">
  </circle>
 </g>
</svg>